<?xml version="1.0" standalone="no"?>
<!DOCTYPE svg PUBLIC "-//W3C//DTD SVG 1.1//EN"
  "http://www.w3.org/Graphics/SVG/1.1/DTD/svg11.dtd">
<svg version="1.1" xmlns="http://www.w3.org/2000/svg" xmlns:xlink="http://www.w3.org/1999/xlink" width="7680" height="4320" viewBox="-1172.4444444444443 -217 2152.8888888888887 1211" id="ccdiagram"><filter id="grayscale"><feColorMatrix type="saturate" values="0"></feColorMatrix></filter><filter id="highlight"><feColorMatrix type="matrix" color-interpolation-filters="sRGB" values="0.20338 0 0 0 0
                0 0.58474 0 0 0
                0 0 0.97033 0 0
                0 0 0 1 0"></feColorMatrix></filter><defs><style type="text/css">@import url('https://fonts.googleapis.com/css2?family=Noto+Sans:ital,wght@0,100..900;1,100..900&amp;family=Roboto+Mono:ital,wght@0,100..700;1,100..700&amp;display=swap');</style></defs><g><rect x="-1172.4444444444443" y="-217" width="2152.8888888888887" height="1211" fill="#000000" id="interactionLayer"></rect><g style="pointer-events: none;"><g><pattern id="gridPatternMinor" x="0" y="37" width="128" height="74" patternUnits="userSpaceOnUse"><path d="M 0 0 L 128 74" stroke="#4f4f4f" stroke-width="1"></path><path d="M 128 0 L 0 74" stroke="#4f4f4f" stroke-width="1"></path></pattern><polygon points="-96 -839, 2028 389, -96 1616, -2220 389" fill="url(#gridPatternMinor)"></polygon></g></g><g pointer-events="auto"><g><g class="cloud-maps_raptor_node" id="35155d75-a622-4a82-bd9c-6475b766e114"><svg x="160" y="130" overflow="visible"><g fill="#222f3d"><polygon points="0 0, 192 111, -608 574, -800 463" stroke="#222f3d" stroke-width="40"></polygon></g></svg></g></g><g><g><g><polygon points="-656 509, -560 564, -608 592, -640 592, -704 555, -704 537" fill="#4286c5"></polygon></g></g></g><g><g><g><polygon points="-144 786, -48 842, -96 870, -128 870, -192 833, -192 814" fill="#4286c5"></polygon></g></g></g></g><g style="pointer-events: none;"><g><pattern id="gridPatternMajor" x="0" y="37" width="128" height="74" patternUnits="userSpaceOnUse"><path d="M 64 0 L 128 37 64 74 0 37 z" stroke="#d5d5d5" stroke-width="1" fill="none"></path></pattern><polygon points="-96 -839, 2028 389, -96 1616, -2220 389" fill="url(#gridPatternMajor)"></polygon></g></g><g pointer-events="auto"></g><g pointer-events="auto"></g><g pointer-events="auto"><g><g class="cloud-maps_raptor_node" id="1569488139"><g><g><polygon points="64 -185, 896 296, -256 962, -1088 481" stroke="#607d8b" stroke-width="8" fill="none"></polygon></g><svg x="64" y="-166" overflow="visible"><clipPath id="clip-1569488139"><polygon points="0 0, 800 463, -320 1110, -1120 648"></polygon></clipPath><g clip-path="url(#clip-1569488139)" font-family="Noto Sans" font-weight="bold" font-size="40pt" fill="#607d8b" stroke="#ffffff" stroke-width="4" paint-order="stroke"><text transform="matrix(0.707 0.409 -0.707 0.409 0 0)" y="45.599999999999994"><tspan>EU-WEST-1</tspan></text></g></svg></g></g></g></g><g pointer-events="auto"><g><g class="cloud-maps_raptor_node" id="09871d9f-4c1b-44f7-92d0-cbb182ecf3be"><g><g><polygon points="64 -37, 640 296, -192 777, -768 444" stroke="#9e9e9e" stroke-width="8" fill="none"></polygon></g><svg x="64" y="-18" overflow="visible"><clipPath id="clip-09871d9f-4c1b-44f7-92d0-cbb182ecf3be"><polygon points="0 0, 544 315, -256 777, -800 463"></polygon></clipPath><g clip-path="url(#clip-09871d9f-4c1b-44f7-92d0-cbb182ecf3be)" font-family="Noto Sans" font-weight="bold" font-size="40pt" fill="#9e9e9e" stroke="#000000" stroke-width="4" paint-order="stroke"><text transform="matrix(0.707 0.409 -0.707 0.409 0 0)" y="45.599999999999994"><tspan>main</tspan></text></g></svg></g></g></g></g><g pointer-events="auto"></g><g pointer-events="auto"><g><g class="cloud-maps_raptor_node" id="eff3ea73-db60-41a0-8185-d0c3e576f60e"><g><g><polygon points="-192 259, 128 444, -192 629, -512 444" stroke="#3f51b5" stroke-width="8" fill="none"></polygon></g><svg x="-192" y="278" overflow="visible"><clipPath id="clip-eff3ea73-db60-41a0-8185-d0c3e576f60e"><polygon points="0 0, 288 167, 0 333, -288 167"></polygon></clipPath><g clip-path="url(#clip-eff3ea73-db60-41a0-8185-d0c3e576f60e)" font-family="Noto Sans" font-weight="bold" font-size="40pt" fill="#3f51b5" stroke="#ffffff" stroke-width="4" paint-order="stroke"><text transform="matrix(0.707 0.409 -0.707 0.409 0 0)" y="45.599999999999994"><tspan>private-app-0</tspan></text></g></svg></g></g></g><g><g class="cloud-maps_raptor_node" id="a9b0b8ca-6399-4e51-aa70-319cf9244db8"><g><g><polygon points="128 148, 320 259, 128 370, -64 259" stroke="#ff5722" stroke-width="8" fill="none"></polygon></g><svg x="128" y="159" overflow="visible"><clipPath id="clip-a9b0b8ca-6399-4e51-aa70-319cf9244db8"><polygon points="0 0, 173 100, 0 200, -173 100"></polygon></clipPath><g clip-path="url(#clip-a9b0b8ca-6399-4e51-aa70-319cf9244db8)" font-family="Noto Sans" font-weight="bold" font-size="20pt" fill="#ff5722" stroke="#000000" stroke-width="4" paint-order="stroke"><text transform="matrix(0.707 0.409 -0.707 0.409 0 0)" y="22.799999999999997"><tspan>private-db</tspan></text></g></svg></g></g></g></g><g pointer-events="auto"></g><g pointer-events="none"></g><g pointer-events="auto"><g id="836df725-03cb-452c-af0b-8d84985ac1e4-efaf6cdc-3f6b-4a03-9f3e-58be4f9bb2ab"><g cursor="cell"><line x1="-368" y1="342" x2="-426" y2="309" stroke="red" stroke-width="8" opacity="0"></line><line x1="-368" y1="342" x2="-426" y2="309" stroke="#ffffff" stroke-width="2" stroke-linecap="round"></line><polygon points="-435 303, -426 318, -423 311, -410 309, -435 303" stroke-linejoin="round" fill="#ffffff" stroke="#ffffff" stroke-width="1"></polygon></g></g><g id="5074bf3f-2bc6-4212-8b2e-a78cf21b8f4a-b6f06c62-01e7-4bb3-bcdc-a7d1dec0fe62"><g cursor="cell"><line x1="-128" y1="407" x2="86" y2="283" stroke="red" stroke-width="8" opacity="0"></line><line x1="-128" y1="407" x2="86" y2="283" stroke="#ffffff" stroke-width="2" stroke-linecap="round"></line><polygon points="96 278, 70 283, 84 285, 87 292, 96 278" stroke-linejoin="round" fill="#ffffff" stroke="#ffffff" stroke-width="1"></polygon></g></g><g id="b825b1ab-9e1f-4737-ae05-7f7087c27584-5074bf3f-2bc6-4212-8b2e-a78cf21b8f4a"><g cursor="cell"><line x1="-354" y1="351" x2="-256" y2="407" stroke="red" stroke-width="8" opacity="0"></line><line x1="-354" y1="351" x2="-256" y2="407" stroke="#ffffff" stroke-width="2" stroke-linecap="round"></line></g></g><g id="2685515d-0fdf-4c31-b26d-7cf5ad8c321d-5074bf3f-2bc6-4212-8b2e-a78cf21b8f4a"><g cursor="cell"><line x1="-636" y1="682" x2="-234" y2="468" stroke="red" stroke-width="8" opacity="0"></line><line x1="-636" y1="682" x2="-234" y2="468" stroke="#ffffff" stroke-width="2" stroke-linecap="round"></line><polygon points="-224 463, -250 467, -237 469, -234 477, -224 463" stroke-linejoin="round" fill="#ffffff" stroke="#ffffff" stroke-width="1"></polygon></g></g></g><g pointer-events="auto"><g><g class="cloud-maps_raptor_node" id="b6f06c62-01e7-4bb3-bcdc-a7d1dec0fe62"><svg x="64" y="158" width="128" height="137.556"><g fill="#ffffff" stroke-width=".265" font-family="sans-serif" font-size="3.175"><path fill="#31353a" d="m.705 45.999.001 54.291 62.689 36.196v-54.29l-15.672-27.15-31.341-18.095z"></path><path fill="#1a1c1e" d="m79.2 55.047 31.342-18.095 15.671 9.047-.001 54.292-62.688 36.193V82.195z"></path><path fill="#484e56" d="M16.378 36.952 47.72 55.048h31.345l31.343-18.096-.001-18.1L79.065.758 47.722.756 16.38 18.852zM48.59 55.048h31.346L64.262 82.195z"></path><path fill="#31353a" d="m16.609 18.164-.001 18.1L.933 45.31zm93.798 18.1v-18.1l15.67 27.146z"></path><path fill="none" stroke="#000" d="m263.724 108.518 16.426-16.426 16.425 32.854Z" transform="matrix(.95417 .55084 -.95417 .55084 -100.053 -150.003)" stroke-linejoin="round" stroke-width=".996"></path><path fill="none" stroke="#000" d="m230.708 125.109 49.276 49.275 65.7.002-49.274-49.274-32.853-16.429h-32.846zm49.457-33.07V59.193h16.423l49.273 49.273.004 65.698-49.274-49.274z" transform="matrix(.95417 .55084 -.95417 .55084 -100.053 -150.003)" stroke-linejoin="round" stroke-width=".972"></path><path fill="none" stroke="#000" d="M230.71 108.686h32.847l16.425-16.425V59.414l-16.428-16.427h-32.846L214.283 59.41v32.847z" transform="matrix(.95417 .55084 -.95417 .55084 -100.053 -150.003)" stroke-linejoin="round" stroke-width=".972"></path><path fill="none" stroke="#131417" d="m280.301 174.066-49.275-49.275-16.424-32.852V59.093l16.426-16.426h32.846l32.85 16.426 49.275 49.275.002 65.7z" transform="matrix(.95417 .55084 -.95417 .55084 -100.053 -150.003)" stroke-width="1.944"></path><g><path d="M241.91 74.684h2.731q3.831 0 5.733-1.5 1.902-1.527 1.902-4.42 0-2.92-1.608-4.312-1.58-1.393-4.982-1.393h-3.777zm18.75-6.214q0 6.321-3.964 9.67-3.938 3.348-11.224 3.348h-3.563v13.93h-8.304V56.254h12.51q7.125 0 10.822 3.08 3.723 3.054 3.723 9.135z" transform="matrix(.95417 .55084 -.95417 .55084 -100.053 -150.003)" font-family="Noto Sans" font-size="14.515"></path></g></g></svg></g></g><g><g class="cloud-maps_raptor_node" id="efaf6cdc-3f6b-4a03-9f3e-58be4f9bb2ab"><svg x="-499" y="194" width="100.626" height="115.695"><path fill="#484e56" d="M50.313 1.155v56.693L99.41 29.501z" fill-rule="evenodd"></path><path fill="#1a1c1e" d="m1.215 29.501 49.098 28.347V1.155z" fill-rule="evenodd"></path><path fill="none" stroke="#000" d="M50.313 1.155v56.693"></path><path fill="#1a1c1e" d="M50.313 57.847 99.41 29.501l-24.549 70.866-24.548 14.173z" fill-rule="evenodd"></path><path fill="#31353a" d="m1.215 29.501 49.098 28.347v56.692l-24.55-14.173z" fill-rule="evenodd"></path><path fill="none" stroke="#000" d="m1.215 29.501 49.098 28.347L99.41 29.501 50.313 57.848v56.692"></path><path fill="none" stroke="#131417" d="M50.313 1.155 1.214 29.501l24.549 70.866 24.549 14.173 24.548-14.173 24.549-70.866z" stroke-width="2"></path></svg></g></g><g><g class="cloud-maps_raptor_node" id="5074bf3f-2bc6-4212-8b2e-a78cf21b8f4a"><svg x="-256" y="370" width="128" height="111" fill-rule="evenodd" stroke-linejoin="round" stroke-miterlimit="1.414"><path fill="#1a1c1e" d="M64 74v37l64-37V37L64 74Z"></path><path fill="#31353a" d="M0 37v37l64 37V74L0 37Z"></path><path fill="#484e56" d="M0 37 64 0l64 37-64 37L0 37Z"></path><path fill="#000" d="m64 73.407 62.111-35.86.514.889-62.487 36.078h-.276L.743 38.072l.514-.89L64 73.407Z"></path><path fill="#000" d="M63.486 74h1.027v36h-1.027z"></path><path fill="#131417" d="M128 37v37l-64 37L0 74V37L64 0l64 37ZM2.054 38.185v34.63L64 108.627l61.946-35.812v-34.63L64 2.373 2.054 38.185Z"></path></svg><svg x="-198" y="389" width="54" height="36" style="overflow: visible; cursor: default;"><rect transform="matrix(0.707 0.409 -0.707 0.409 0 0)" width="54" height="36" rx="5" ry="5" fill="#ffffff"></rect><text transform="matrix(0.707 0.409 -0.707 0.409 0 0)" font-family="Noto Sans" text-anchor="middle" x="50%" font-weight="normal" font-size="20pt" y="80%" fill="#000000">T2</text></svg></g></g><g><g class="cloud-maps_raptor_node" id="2685515d-0fdf-4c31-b26d-7cf5ad8c321d"><svg x="-696" y="617" width="63" height="95.068"><path fill="#fff" stroke="#131417" d="M62.5 85.684q0 6.102-3.216 7.779-3.216 1.677-8.542-1.398l-38.486-22.22q-5.329-3.077-8.542-8.466Q.501 55.991.498 49.887q0-2.693.156-5.172.155-2.479.616-5.185.461-2.707 1.167-4.845.705-2.139 1.893-3.864 1.19-1.726 2.73-2.541 1.541-.816 3.766-.546 2.224.27 4.91 1.818.397.23 1.849 2.162t3.28 4.333q1.827 2.402 4.757 5.187 2.93 2.785 5.878 4.487 2.95 1.703 5.88 2.301 2.929.598 4.756.306 1.827-.292 3.28-.546 1.452-.255 1.85-.026 2.685 1.55 4.909 3.85 2.224 2.301 3.765 4.894 1.542 2.593 2.73 5.693 1.189 3.101 1.894 6.051.705 2.95 1.166 6.192.462 3.242.617 5.897.155 2.655.155 5.352zm-14.09-53.54q0 8.083-4.955 10.944-4.954 2.86-11.955-1.182-7-4.042-11.955-12.623-4.954-8.58-4.954-16.664 0-8.084 4.954-10.944 4.954-2.86 11.955 1.181 7.001 4.042 11.955 12.623 4.954 8.58 4.954 16.665z" stroke-width=".996"></path></svg></g></g></g><g pointer-events="auto"></g><g pointer-events="auto"><g><g class="cloud-maps_raptor_node" id="b825b1ab-9e1f-4737-ae05-7f7087c27584"><svg x="-368" y="342" overflow="visible"><g transform="scale(0.8944271909999159) matrix(0.707 0.409 -0.707 0.409 0 0)"><circle cx="0" cy="0" fill="#ffc107" r="23"></circle><svg width="27" height="32" x="-13.5" y="-16" style="fill: rgb(0, 0, 0);"><svg xmlns="http://www.w3.org/2000/svg" width="27" height="32" viewBox="0 0 27 32"><path d="M26.214 6.786c.661.661 1.214 1.982 1.214 2.929v20.571c0 .946-.768 1.714-1.714 1.714h-24A1.715 1.715 0 0 1 0 30.286V1.715C0 .769.768.001 1.714.001h16c.946 0 2.268.554 2.929 1.214zm-7.928-4.357v6.714H25c-.107-.304-.268-.607-.393-.732l-5.589-5.589c-.125-.125-.429-.286-.732-.393zm6.857 27.285V11.428h-7.429A1.715 1.715 0 0 1 16 9.714V2.285H2.286v27.429h22.857zM6.857 14.286c0-.321.25-.571.571-.571h12.571c.321 0 .571.25.571.571v1.143c0 .321-.25.571-.571.571H7.428a.564.564 0 0 1-.571-.571v-1.143zm13.143 4c.321 0 .571.25.571.571V20c0 .321-.25.571-.571.571H7.429A.564.564 0 0 1 6.858 20v-1.143c0-.321.25-.571.571-.571H20zm0 4.571c.321 0 .571.25.571.571v1.143c0 .321-.25.571-.571.571H7.429a.564.564 0 0 1-.571-.571v-1.143c0-.321.25-.571.571-.571H20z"></path></svg></svg></g></svg></g></g></g><g pointer-events="auto"><g><g class="cloud-maps_raptor_node" id="1795d0b6-1f55-43b4-adbd-be2def759bde" transform="translate(0 0)"><svg x="-608" y="537" overflow="visible"><text stroke="#000000" stroke-width="2" font-family="Noto Sans" y="65" font-size="50pt" fill="#ffffff" font-weight="bold" transform="matrix(0.707 0.409 -0.707 0.409 0 0)" paint-order="stroke" xml:space="preserve"><tspan x="8" dy="0">A</tspan></text></svg></g></g><g><g class="cloud-maps_raptor_node" id="34e3c7b8-71a7-4231-8aab-5f31312f0f64" transform="translate(0 0)"><svg x="-336" y="416" overflow="visible"><text stroke="#000000" stroke-width="2" font-family="Noto Sans" y="36.5" font-size="25pt" fill="#f5b720" font-weight="bold" transform="matrix(0.707 0.409 -0.707 0.409 0 0)" paint-order="stroke" xml:space="preserve"><tspan x="8" dy="0">AMI server</tspan></text></svg></g></g><g><g class="cloud-maps_raptor_node" id="bad34542-af2b-43d8-9bc7-2feb4f015e80" transform="translate(0 0)"><svg x="368" y="139" overflow="visible"><text stroke="#000000" stroke-width="2" font-family="Noto Sans" y="36.5" font-size="25pt" fill="#f5b720" font-weight="bold" transform="matrix(0.707 0.409 -0.707 0.409 0 0)" paint-order="stroke" xml:space="preserve"><tspan x="8" dy="0">RDS</tspan></text></svg></g></g><g><g class="cloud-maps_raptor_node" id="ee2af773-dad5-4757-9409-da7637ce04e0" transform="translate(0 0)"><svg x="336" y="157" overflow="visible"><text stroke="#000000" stroke-width="2" font-family="Noto Sans" y="25.099999999999998" font-size="15pt" fill="#f5b720" font-weight="bold" transform="matrix(0.707 0.409 -0.707 0.409 0 0)" paint-order="stroke" xml:space="preserve"><tspan x="8" dy="0">Primary</tspan></text></svg></g></g><g><g class="cloud-maps_raptor_node" id="fd919d09-45b6-4938-a185-3afed1027e1c" transform="translate(0 0)"><svg x="-480" y="296" overflow="visible"><text stroke="#000000" stroke-width="2" font-family="Noto Sans" y="36.5" font-size="25pt" fill="#ffc107" font-weight="bold" transform="matrix(0.707 0.409 -0.707 0.409 0 0)" paint-order="stroke" xml:space="preserve"><tspan x="8" dy="0">S3</tspan></text></svg></g></g><g><g class="cloud-maps_raptor_node" id="31910fa9-cc37-4ab1-8c23-6a79e72e3cc8" transform="translate(0 0)"><svg x="-272" y="361" overflow="visible"><text stroke="#000000" stroke-width="2" font-family="Noto Sans" y="25.099999999999998" font-size="15pt" fill="#ffffff" font-weight="bold" transform="matrix(0.707 -0.409 0.707 0.409 0 0)" paint-order="stroke" xml:space="preserve"><tspan x="8" dy="0">Availability Zone</tspan></text></svg></g></g><g><g class="cloud-maps_raptor_node" id="4d88fce8-b149-40cc-80f8-9fbc14dd150c" transform="translate(0 0)"><svg x="192" y="629" overflow="visible"><text stroke="#000000" stroke-width="2" font-family="Noto Sans" y="25.099999999999998" font-size="15pt" fill="#ffffff" font-weight="bold" transform="matrix(0.707 -0.409 0.707 0.409 0 0)" paint-order="stroke" xml:space="preserve"><tspan x="8" dy="0">Availability Zone</tspan></text></svg></g></g><g><g class="cloud-maps_raptor_node" id="1a2dc397-a74c-4cd7-9741-ab02bcc41004" transform="translate(0 0)"><svg x="32" y="648" overflow="visible"><text stroke="#000000" stroke-width="2" font-family="Noto Sans" y="36.5" font-size="25pt" fill="#ffffff" font-weight="bold" transform="matrix(0.707 0.409 -0.707 0.409 0 0)" paint-order="stroke" xml:space="preserve"><tspan x="8" dy="0">EC2</tspan></text></svg></g></g><g><g class="cloud-maps_raptor_node" id="f581279c-99de-48f7-9fa0-5aaaf3ba5b29" transform="translate(0 0)"><svg x="-416" y="278" overflow="visible"><text stroke="#000000" stroke-width="2" font-family="Noto Sans" y="25.099999999999998" font-size="15pt" fill="#ffffff" font-weight="bold" transform="matrix(0.707 -0.409 0.707 0.409 0 0)" paint-order="stroke" xml:space="preserve"><tspan x="8" dy="0">Static</tspan><tspan x="8" dy="1.1em">Resources</tspan></text></svg></g></g><g><g class="cloud-maps_raptor_node" id="751e768f-8fa5-4208-825c-ebd08caa225e" transform="translate(0 0)"><svg x="-640" y="518" overflow="visible"><text stroke="#000000" stroke-width="2" font-family="Noto Sans" y="36.5" font-size="25pt" fill="#ffffff" font-weight="bold" transform="matrix(0.707 0.409 -0.707 0.409 0 0)" paint-order="stroke" xml:space="preserve"><tspan x="8" dy="0">AZ</tspan></text></svg></g></g><g><g class="cloud-maps_raptor_node" id="3c67307a-f38c-4062-877c-14ad8cb6d261" transform="translate(0 0)"><svg x="-96" y="814" overflow="visible"><text stroke="#000000" stroke-width="2" font-family="Noto Sans" y="65" font-size="50pt" fill="#ffffff" font-weight="bold" transform="matrix(0.707 0.409 -0.707 0.409 0 0)" paint-order="stroke" xml:space="preserve"><tspan x="8" dy="0">B</tspan></text></svg></g></g><g><g class="cloud-maps_raptor_node" id="a8d2e8fb-f21f-4378-8eef-961a99bcf879" transform="translate(0 0)"><svg x="-144" y="786" overflow="visible"><text stroke="#000000" stroke-width="2" font-family="Noto Sans" y="36.5" font-size="25pt" fill="#ffffff" font-weight="bold" transform="matrix(0.707 0.409 -0.707 0.409 0 0)" paint-order="stroke" xml:space="preserve"><tspan x="8" dy="0">AZ</tspan></text></svg></g></g></g></g></svg>