<?xml version="1.0" encoding="utf-8" standalone="yes"?>
<!DOCTYPE svg PUBLIC "-//W3C//DTD SVG 1.1//EN" "http://www.w3.org/Graphics/SVG/1.1/DTD/svg11.dtd">
<svg width="1130" height="615" viewBox="0 0 1130 615" style="fill:none;stroke:none;fill-rule:evenodd;clip-rule:evenodd;stroke-linecap:round;stroke-linejoin:round;stroke-miterlimit:1.5;" version="1.1" xmlns="http://www.w3.org/2000/svg" xmlns:xlink="http://www.w3.org/1999/xlink"><style class="text-font-style fontImports" data-font-family="Roboto">@import url('https://fonts.googleapis.com/css2?family=Roboto:wght@400;700&amp;display=block');</style><g id="items" style="isolation: isolate"><g id="blend" style="mix-blend-mode: normal"><g id="g-root-6.g-6_fr_1luvy6m11sc9hm-fill" data-item-order="-557270" transform="translate(876, 111)"><g id="6.g-6_fr_1luvy6m11sc9hm-fill" stroke="none" fill="#1ac3fb"><g><path d="M 136.5037 52C 138.1093 48.3252 139 44.2666 139 40C 139 35.7334 138.1093 31.6748 136.5037 28L 157 28L 157 27C 157 25.8954 157.895 25 159 25L 163 25L 163 55L 159 55C 157.895 55 157 54.1046 157 53L 157 52L 136.5037 52ZM 81.4963 52L 61 52L 61 53C 61 54.1046 60.1046 55 59 55L 55 55L 55 25L 59 25C 60.1046 25 61 25.8954 61 27L 61 28L 81.4963 28C 79.8907 31.6748 79 35.7334 79 40C 79 44.2666 79.8907 48.3252 81.4963 52Z"></path></g></g><g id="6.g-6_fr_1luvy6m11sc9hm-fill" stroke="none" fill="#1ac3fb"><g><path d="M 10 130L 10 126C 10 124.8954 10.8954 124 12 124L 13 124L 13 76L 12 76C 10.8954 76 10.000002 75.1046 10.000002 74L 10.000003 70L 40 70.000001L 40 74C 40 75.1046 39.1046 76 38 76L 37 76L 37 124L 38 124C 39.1046 124 40 124.8954 40 126L 40 130L 10 130Z"></path></g></g><g id="6.g-6_fr_1luvy6m11sc9hm-fill" stroke="none" fill="#1ac3fb"><g><path d="M 13 52C 13 38.7452 23.7452 28 37 28L 49 28L 49 27C 49 25.8954 49.8954 25 51 25L 55 25L 55 55L 51 55C 49.8954 55 49 54.1046 49 53L 49 52L 41 52C 38.7909 52 37 53.7909 37 56L 37 64L 38 64C 39.1046 64 40 64.8954 40 66L 40 70L 10 70L 10 66C 10 64.8954 10.8954 64 12 64L 13 64L 13 52Z"></path></g></g><g id="6.g-6_fr_1luvy6m11sc9hm-fill" stroke="none" fill="#1ac3fb"><g><path d="M 139 40C 139 56.5685 125.5685 70 109 70C 92.4315 70 79 56.5685 79 40C 79 23.4315 92.4315 10 109 10C 125.5685 10 139 23.4315 139 40Z"></path></g></g></g><g id="g-root-5.g-5_fr_18k1wwe11sc7wv-fill" data-item-order="-557266" transform="translate(708, 231)"><g id="5.g-5_fr_18k1wwe11sc7wv-fill" stroke="none" fill="#4f91fc"><g><path d="M 136.5037 112C 138.1093 108.3252 139 104.2666 139 100C 139 95.7334 138.1093 91.6748 136.5037 88L 157 88L 157 87C 157 85.8954 157.895 85 159 85L 163 85L 163 115L 159 115C 157.895 115 157 114.1046 157 113L 157 112L 136.5037 112ZM 81.4963 112L 61 112L 61 113C 61 114.1046 60.1046 115 59 115L 55 115L 55 85L 59 85C 60.1046 85 61 85.8954 61 87L 61 88L 81.4963 88C 79.8907 91.6748 79 95.7334 79 100C 79 104.2666 79.8907 108.3252 81.4963 112Z"></path></g></g><g id="5.g-5_fr_18k1wwe11sc7wv-fill" stroke="none" fill="#4f91fc"><g><path d="M 10 70L 10 66C 10 64.8954 10.8954 64 12 64L 13 64L 13 46L 12 46C 10.8954 46 10.000001 45.1046 10.000001 44L 10.000001 40L 40 40.000001L 40 44C 40 45.1046 39.1046 46 38 46L 37 46L 37 64L 38 64C 39.1046 64 40 64.8954 40 66L 40 70L 10 70Z"></path></g></g><g id="5.g-5_fr_18k1wwe11sc7wv-fill" stroke="none" fill="#4f91fc"><g><path d="M 178 70L 178 66C 178 64.8954 178.8954 64 180 64L 181 64L 181 16L 180 16C 178.8954 16 178.000002 15.1046 178.000002 14L 178.000003 10L 208 10.000001L 208 14C 208 15.1046 207.1046 16 206 16L 205 16L 205 64L 206 64C 207.1046 64 208 64.8954 208 66L 208 70L 178 70Z"></path></g></g><g id="5.g-5_fr_18k1wwe11sc7wv-fill" stroke="none" fill="#4f91fc"><g><path d="M 13 88C 13 101.2548 23.7452 112 37 112L 49 112L 49 113C 49 114.1046 49.8954 115 51 115L 55 115L 55 85L 51 85C 49.8954 85 49 85.8954 49 87L 49 88L 41 88C 38.7909 88 37 86.2091 37 84L 37 76L 38 76C 39.1046 76 40 75.1046 40 74L 40 70L 10 70.000005L 10.000001 74C 10.000001 75.1046 10.8954 76 12 76L 13 76L 13 88Z"></path></g></g><g id="5.g-5_fr_18k1wwe11sc7wv-fill" stroke="none" fill="#4f91fc"><g><path d="M 205 88C 205 101.2548 194.2548 112 181 112L 169 112L 169 113C 169 114.1046 168.1046 115 167 115L 163 115L 163.000007 85L 167 85C 168.1046 85 169 85.8954 169 87L 169 88L 177 88C 179.2091 88 181 86.2091 181 84L 181 76L 180 76C 178.8954 76 178 75.1046 178 74L 178 70L 208 70.000005L 208 74C 208 75.1046 207.1046 76 206 76L 205 76L 205 88Z"></path></g></g><g id="5.g-5_fr_18k1wwe11sc7wv-fill" stroke="none" fill="#4f91fc"><g><path d="M 139 100C 139 116.5685 125.5685 130 109 130C 92.4315 130 79 116.5685 79 100C 79 83.4315 92.4315 70 109 70C 125.5685 70 139 83.4315 139 100Z"></path></g></g></g><g id="g-root-4.g-4_fr_qsrwem11scaa6-fill" data-item-order="-557262" transform="translate(540, 171)"><g id="4.g-4_fr_qsrwem11scaa6-fill" stroke="none" fill="#43dd93"><g><path d="M 136.5037 52C 138.1093 48.3252 139 44.2666 139 40C 139 35.7334 138.1093 31.6748 136.5037 28L 157 28L 157 27C 157 25.8954 157.895 25 159 25L 163 25L 163 55L 159 55C 157.895 55 157 54.1046 157 53L 157 52L 136.5037 52ZM 81.4963 52L 61 52L 61 53C 61 54.1046 60.1046 55 59 55L 55 55L 55 25L 59 25C 60.1046 25 61 25.8954 61 27L 61 28L 81.4963 28C 79.8907 31.6748 79 35.7334 79 40C 79 44.2666 79.8907 48.3252 81.4963 52Z"></path></g></g><g id="4.g-4_fr_qsrwem11scaa6-fill" stroke="none" fill="#43dd93"><g><path d="M 178 100L 178 96C 178 94.8954 178.8954 94 180 94L 181 94L 181 76L 180 76C 178.8954 76 178.000001 75.1046 178.000001 74L 178.000001 70L 208 70.000001L 208 74C 208 75.1046 207.1046 76 206 76L 205 76L 205 94L 206 94C 207.1046 94 208 94.8954 208 96L 208 100L 178 100Z"></path></g></g><g id="4.g-4_fr_qsrwem11scaa6-fill" stroke="none" fill="#43dd93"><g><path d="M 13 52C 13 38.7452 23.7452 28 37 28L 49 28L 49 27C 49 25.8954 49.8954 25 51 25L 55 25L 55 55L 51 55C 49.8954 55 49 54.1046 49 53L 49 52L 41 52C 38.7909 52 37 53.7909 37 56L 37 64L 38 64C 39.1046 64 40 64.8954 40 66L 40 70L 10 70L 10 66C 10 64.8954 10.8954 64 12 64L 13 64L 13 52Z"></path></g></g><g id="4.g-4_fr_qsrwem11scaa6-fill" stroke="none" fill="#43dd93"><g><path d="M 205 52C 205 38.7452 194.2548 28 181 28L 169 28L 169 27C 169 25.8954 168.1046 25 167 25L 163 25L 163.000001 55L 167 55C 168.1046 55 169 54.1046 169 53L 169 52L 177 52C 179.2091 52 181 53.7909 181 56L 181 64L 180 64C 178.8954 64 178 64.8954 178 66L 178 70L 208 70L 208 66C 208 64.8954 207.1046 64 206 64L 205 64L 205 52Z"></path></g></g><g id="4.g-4_fr_qsrwem11scaa6-fill" stroke="none" fill="#43dd93"><g><path d="M 139 40C 139 56.5685 125.5685 70 109 70C 92.4315 70 79 56.5685 79 40C 79 23.4315 92.4315 10 109 10C 125.5685 10 139 23.4315 139 40Z"></path></g></g></g><g id="g-root-3.g-3_fr_hxrd8u11sc8p0-fill" data-item-order="-557258" transform="translate(372, 201)"><g id="3.g-3_fr_hxrd8u11sc8p0-fill" stroke="none" fill="#ffe711"><g><path d="M 136.5037 82C 138.1093 78.3252 139 74.2666 139 70C 139 65.7334 138.1093 61.6748 136.5037 58L 157 58L 157 57C 157 55.8954 157.895 55 159 55L 163 55L 163 85L 159 85C 157.895 85 157 84.1046 157 83L 157 82L 136.5037 82ZM 81.4963 82L 61 82L 61 83C 61 84.1046 60.1046 85 59 85L 55 85L 55 55L 59 55C 60.1046 55 61 55.8954 61 57L 61 58L 81.4963 58C 79.8907 61.6748 79 65.7334 79 70C 79 74.2666 79.8907 78.3252 81.4963 82Z"></path></g></g><g id="3.g-3_fr_hxrd8u11sc8p0-fill" stroke="none" fill="#ffe711"><g><path d="M 10 40L 10 36C 10 34.8954 10.8954 34 12 34L 13 34L 13 16L 12 16C 10.8954 16 10.000001 15.1046 10.000001 14L 10.000001 10L 40 10.000001L 40 14C 40 15.1046 39.1046 16 38 16L 37 16L 37 34L 38 34C 39.1046 34 40 34.8954 40 36L 40 40L 10 40Z"></path></g></g><g id="3.g-3_fr_hxrd8u11sc8p0-fill" stroke="none" fill="#ffe711"><g><path d="M 205 58C 205 71.2548 194.2548 82 181 82L 169 82L 169 83C 169 84.1046 168.1046 85 167 85L 163 85L 163.000007 55L 167 55C 168.1046 55 169 55.8954 169 57L 169 58L 177 58C 179.2091 58 181 56.2091 181 54L 181 46L 180 46C 178.8954 46 178 45.1046 178 44L 178 40L 208 40.000005L 208 44C 208 45.1046 207.1046 46 206 46L 205 46L 205 58Z"></path></g></g><g id="3.g-3_fr_hxrd8u11sc8p0-fill" stroke="none" fill="#ffe711"><g><path d="M 13 58C 13 71.2548 23.7452 82 37 82L 49 82L 49 83C 49 84.1046 49.8954 85 51 85L 55 85L 55 55L 51 55C 49.8954 55 49 55.8954 49 57L 49 58L 41 58C 38.7909 58 37 56.2091 37 54L 37 46L 38 46C 39.1046 46 40 45.1046 40 44L 40 40L 10 40.000005L 10.000001 44C 10.000001 45.1046 10.8954 46 12 46L 13 46L 13 58Z"></path></g></g><g id="3.g-3_fr_hxrd8u11sc8p0-fill" stroke="none" fill="#ffe711"><g><path d="M 139 70C 139 86.5685 125.5685 100 109 100C 92.4315 100 79 86.5685 79 70C 79 53.4315 92.4315 40 109 40C 125.5685 40 139 53.4315 139 70Z"></path></g></g></g><g id="g-root-2.g-2_fr_1lwrdfy11sc9aa-fill" data-item-order="-557254" transform="translate(204, 111)"><g id="2.g-2_fr_1lwrdfy11sc9aa-fill" stroke="none" fill="#f79438"><g><path d="M 136.5037 52C 138.1093 48.3252 139 44.2666 139 40C 139 35.7334 138.1093 31.6748 136.5037 28L 157 28L 157 27C 157 25.8954 157.895 25 159 25L 163 25L 163 55L 159 55C 157.895 55 157 54.1046 157 53L 157 52L 136.5037 52ZM 81.4963 52L 61 52L 61 53C 61 54.1046 60.1046 55 59 55L 55 55L 55 25L 59 25C 60.1046 25 61 25.8954 61 27L 61 28L 81.4963 28C 79.8907 31.6748 79 35.7334 79 40C 79 44.2666 79.8907 48.3252 81.4963 52Z"></path></g></g><g id="2.g-2_fr_1lwrdfy11sc9aa-fill" stroke="none" fill="#f79438"><g><path d="M 178 100L 178 96C 178 94.8954 178.8954 94 180 94L 181 94L 181 76L 180 76C 178.8954 76 178.000001 75.1046 178.000001 74L 178.000001 70L 208 70.000001L 208 74C 208 75.1046 207.1046 76 206 76L 205 76L 205 94L 206 94C 207.1046 94 208 94.8954 208 96L 208 100L 178 100Z"></path></g></g><g id="2.g-2_fr_1lwrdfy11sc9aa-fill" stroke="none" fill="#f79438"><g><path d="M 10 130L 10 126C 10 124.8954 10.8954 124 12 124L 13 124L 13 76L 12 76C 10.8954 76 10.000002 75.1046 10.000002 74L 10.000003 70L 40 70.000001L 40 74C 40 75.1046 39.1046 76 38 76L 37 76L 37 124L 38 124C 39.1046 124 40 124.8954 40 126L 40 130L 10 130Z"></path></g></g><g id="2.g-2_fr_1lwrdfy11sc9aa-fill" stroke="none" fill="#f79438"><g><path d="M 205 52C 205 38.7452 194.2548 28 181 28L 169 28L 169 27C 169 25.8954 168.1046 25 167 25L 163 25L 163.000001 55L 167 55C 168.1046 55 169 54.1046 169 53L 169 52L 177 52C 179.2091 52 181 53.7909 181 56L 181 64L 180 64C 178.8954 64 178 64.8954 178 66L 178 70L 208 70L 208 66C 208 64.8954 207.1046 64 206 64L 205 64L 205 52Z"></path></g></g><g id="2.g-2_fr_1lwrdfy11sc9aa-fill" stroke="none" fill="#f79438"><g><path d="M 13 52C 13 38.7452 23.7452 28 37 28L 49 28L 49 27C 49 25.8954 49.8954 25 51 25L 55 25L 55 55L 51 55C 49.8954 55 49 54.1046 49 53L 49 52L 41 52C 38.7909 52 37 53.7909 37 56L 37 64L 38 64C 39.1046 64 40 64.8954 40 66L 40 70L 10 70L 10 66C 10 64.8954 10.8954 64 12 64L 13 64L 13 52Z"></path></g></g><g id="2.g-2_fr_1lwrdfy11sc9aa-fill" stroke="none" fill="#f79438"><g><path d="M 139 40C 139 56.5685 125.5685 70 109 70C 92.4315 70 79 56.5685 79 40C 79 23.4315 92.4315 10 109 10C 125.5685 10 139 23.4315 139 40Z"></path></g></g></g><g id="g-root-1.g-1_fr_1463u1a11sc8ht-fill" data-item-order="-557250" transform="translate(81, 231)"><g id="1.g-1_fr_1463u1a11sc8ht-fill" stroke="none" fill="#fb6762"><g><path d="M 133 69.999999L 133 65.999999C 133 64.895399 133.8954 63.999999 135 63.999999L 136 63.999999L 136 15.999999L 135 15.999999C 133.8954 15.999999 133.000002 15.104599 133.000002 13.999999L 133.000003 9.999999L 163 10L 163 13.999999C 163 15.104599 162.1046 15.999999 161 15.999999L 160 15.999999L 160 63.999999L 161 63.999999C 162.1046 63.999999 163 64.895399 163 65.999999L 163 69.999999L 133 69.999999Z"></path></g></g><g id="1.g-1_fr_1463u1a11sc8ht-fill" stroke="none" fill="#fb6762"><g><path d="M 91.5037 112C 93.1093 108.3252 94 104.2666 94 100C 94 95.7334 93.1093 91.6748 91.5037 88L 112 88L 112 87C 112 85.8954 112.895 85 114 85L 118 85L 118 115L 114 115C 112.895 115 112 114.1046 112 113L 112 112L 91.5037 112ZM 36.4963 112L 16 112L 16 113C 16 114.1046 15.1046 115 14 115L 10 115L 10 85L 14 85C 15.1046 85 16 85.8954 16 87L 16 88L 36.4963 88C 34.8907 91.6748 34 95.7334 34 100C 34 104.2666 34.8907 108.3252 36.4963 112Z"></path></g></g><g id="1.g-1_fr_1463u1a11sc8ht-fill" stroke="none" fill="#fb6762"><g><path d="M 160 88.000004C 160 101.254804 149.2548 112.000004 136 112.000004L 124 112.000004L 124 113.000004C 124 114.104604 123.1046 115.000004 122 115.000004L 118 115.000004L 118.000007 85.000004L 122 85.000004C 123.1046 85.000004 124 85.895404 124 87.000004L 124 88.000004L 132 88.000004C 134.2091 88.000004 136 86.209104 136 84.000004L 136 76.000004L 135 76.000004C 133.8954 76.000004 133 75.104604 133 74.000004L 133 70.000004L 163 70.000009L 163 74.000004C 163 75.104604 162.1046 76.000004 161 76.000004L 160 76.000004L 160 88.000004Z"></path></g></g><g id="1.g-1_fr_1463u1a11sc8ht-fill" stroke="none" fill="#fb6762"><g><path d="M 94 100C 94 116.5685 80.5685 130 64 130C 47.4315 130 34 116.5685 34 100C 34 83.4315 47.4315 70 64 70C 80.5685 70 94 83.4315 94 100Z"></path></g></g></g><g id="g-root-unpr_1ly0bm611sdouh-fill" data-item-order="0" transform="translate(621, 183)"></g><g id="g-root-1_8cs0e11sca2v-fill" data-item-order="0" transform="translate(957, 123)"></g><g id="g-root-aler_8cs0e11sf0uj-fill" data-item-order="0" transform="translate(285, 123)"></g><g id="g-root-plur_de70lq11sf30q-fill" data-item-order="0" transform="translate(453, 243)"></g><g id="g-root-tx_serverat_qunbny11sca2u-fill" data-item-order="0" transform="translate(381, 39)"><g id="tx_serverat_qunbny11sca2u-fill" stroke="none" fill="#f4f4f4"><g><text style="font: 20px &quot;Roboto&quot;, sans-serif; white-space: pre;" font-size="20px" font-family="'Roboto', sans-serif"><tspan x="11.87" y="34" dominant-baseline="ideographic">Server Attack and Mitigation Sequence</tspan></text></g></g></g><g id="g-root-1_18hk0jy11sghsc-fill" data-item-order="0" transform="translate(117, 303)"></g><g id="g-root-warn_1ltn00e11sdma0-fill" data-item-order="0" transform="translate(789, 303)"></g><g id="g-root-48px_1lz99se11sghs7-fill" data-item-order="0" transform="translate(117, 363)"></g><g id="g-root-48px_18jffta11shu6i-fill" data-item-order="0" transform="translate(285, 363)"></g><g id="g-root-48px_dcblce11sj8xx-fill" data-item-order="0" transform="translate(453, 363)"></g><g id="g-root-48px_hyduby11sj9qg-fill" data-item-order="0" transform="translate(621, 363)"></g><g id="g-root-48px_2qi8e11skmwz-fill" data-item-order="0" transform="translate(789, 363)"></g><g id="g-root-48px_hzmsi611skpae-fill" data-item-order="0" transform="translate(957.5, 363)"></g><g id="g-root-tx_servercr_146qb4e11sghz9-fill" data-item-order="0" transform="translate(63, 411)"><g id="tx_servercr_146qb4e11sghz9-fill" stroke="none" fill="#fb6762"><g><text style="font: bold 20px &quot;Roboto&quot;, sans-serif; white-space: pre;" font-weight="bold" font-size="20px" font-family="'Roboto', sans-serif"><tspan x="12.03" y="34" dominant-baseline="ideographic">Server Crash</tspan></text></g></g></g><g id="g-root-tx_attackdi_qqwh5a11shudk-fill" data-item-order="0" transform="translate(231, 411.00006103515625)"><g id="tx_attackdi_qqwh5a11shudk-fill" stroke="none" fill="#f79438"><g><text style="font: bold 20px &quot;Roboto&quot;, sans-serif; white-space: pre;" font-weight="bold" font-size="20px" font-family="'Roboto', sans-serif"><tspan x="28.7" y="34" dominant-baseline="ideographic">Attack </tspan><tspan x="13.75" y="58" dominant-baseline="ideographic">Discovery</tspan></text></g></g></g><g id="g-root-tx_maliciou_9lq6m11shtsb-fill" data-item-order="0" transform="translate(399, 411.00006103515625)"><g id="tx_maliciou_9lq6m11shtsb-fill" stroke="none" fill="#ffe711"><g><text style="font: bold 20px &quot;Roboto&quot;, sans-serif; white-space: pre;" font-weight="bold" font-size="20px" font-family="'Roboto', sans-serif"><tspan x="26.35" y="34" dominant-baseline="ideographic">Malicious </tspan><tspan x="11.85" y="58" dominant-baseline="ideographic">Traffic Surge</tspan></text></g></g></g><g id="g-root-tx_security_1qbbxe611sjaj2-fill" data-item-order="0" transform="translate(567, 411.00006103515625)"><g id="tx_security_1qbbxe611sjaj2-fill" stroke="none" fill="#43dd93"><g><text style="font: bold 20px &quot;Roboto&quot;, sans-serif; white-space: pre;" font-weight="bold" font-size="20px" font-family="'Roboto', sans-serif"><tspan x="13.62" y="34" dominant-baseline="ideographic">Security Group </tspan><tspan x="23.75" y="58" dominant-baseline="ideographic">Modification</tspan></text></g></g></g><g id="g-root-tx_temporar_1hbblji11skmwx-fill" data-item-order="0" transform="translate(735, 411.00006103515625)"><g id="tx_temporar_1hbblji11skmwx-fill" stroke="none" fill="#4f91fc"><g><text style="font: bold 20px &quot;Roboto&quot;, sans-serif; white-space: pre;" font-weight="bold" font-size="20px" font-family="'Roboto', sans-serif"><tspan x="21.29" y="34" dominant-baseline="ideographic">Temporary </tspan><tspan x="13.81" y="58" dominant-baseline="ideographic">Stabilization</tspan></text></g></g></g><g id="g-root-tx_cloudwat_4mxbym11skop8-fill" data-item-order="0" transform="translate(903, 411.00006103515625)"><g id="tx_cloudwat_4mxbym11skop8-fill" stroke="none" fill="#1ac3fb"><g><text style="font: bold 20px &quot;Roboto&quot;, sans-serif; white-space: pre;" font-weight="bold" font-size="20px" font-family="'Roboto', sans-serif"><tspan x="14.06" y="34" dominant-baseline="ideographic">CloudWatch </tspan><tspan x="12.57" y="58" dominant-baseline="ideographic">Alarm Setup</tspan></text></g></g></g><g id="g-root-tx_theserve_i099la11sgh72-fill" data-item-order="0" transform="translate(63, 447.00006103515625)"><g id="tx_theserve_i099la11sgh72-fill" stroke="none" fill="#ffe9e8"><g><text style="font: 15px &quot;Roboto&quot;, sans-serif; white-space: pre;" font-size="15px" font-family="'Roboto', sans-serif"><tspan x="28.78" y="31" dominant-baseline="ideographic">The server </tspan><tspan x="17.7" y="49" dominant-baseline="ideographic">experiences a </tspan><tspan x="14.43" y="67" dominant-baseline="ideographic">sudden failure.</tspan></text></g></g></g><g id="g-root-tx_theattac_4lxhq11shudl-fill" data-item-order="0" transform="translate(231, 471.00006103515625)"><g id="tx_theattac_4lxhq11shudl-fill" stroke="none" fill="#fff0e2"><g><text style="font: 15px &quot;Roboto&quot;, sans-serif; white-space: pre;" font-size="15px" font-family="'Roboto', sans-serif"><tspan x="31.35" y="31" dominant-baseline="ideographic">The attack is </tspan><tspan x="15.67" y="49" dominant-baseline="ideographic">identified through </tspan><tspan x="36.88" y="67" dominant-baseline="ideographic">Nginx logs.</tspan></text></g></g></g><g id="g-root-tx_theserve_13ym4zy11sj8xw-fill" data-item-order="0" transform="translate(399, 471.00006103515625)"><g id="tx_theserve_13ym4zy11sj8xw-fill" stroke="none" fill="#fffbd5"><g><text style="font: 15px &quot;Roboto&quot;, sans-serif; white-space: pre;" font-size="15px" font-family="'Roboto', sans-serif"><tspan x="25.57" y="31" dominant-baseline="ideographic">The server is </tspan><tspan x="13.82" y="49" dominant-baseline="ideographic">overwhelmed by </tspan><tspan x="24.26" y="67" dominant-baseline="ideographic">attack traffic.</tspan></text></g></g></g><g id="g-root-tx_analarms_18lxc5q11skpad-fill" data-item-order="0" transform="translate(903, 471.00006103515625)"><g id="tx_analarms_18lxc5q11skpad-fill" stroke="none" fill="#e5f8ff"><g><text style="font: 15px &quot;Roboto&quot;, sans-serif; white-space: pre;" font-size="15px" font-family="'Roboto', sans-serif"><tspan x="16.43" y="31" dominant-baseline="ideographic">An alarm system is </tspan><tspan x="30.39" y="49" dominant-baseline="ideographic">established for </tspan><tspan x="41.97" y="67" dominant-baseline="ideographic">monitoring.</tspan></text></g></g></g><g id="g-root-tx_theserve_qp11vy11skmwy-fill" data-item-order="0" transform="translate(735, 471.00006103515625)"><g id="tx_theserve_qp11vy11skmwy-fill" stroke="none" fill="#ebf2ff"><g><text style="font: 15px &quot;Roboto&quot;, sans-serif; white-space: pre;" font-size="15px" font-family="'Roboto', sans-serif"><tspan x="12.77" y="31" dominant-baseline="ideographic">The server stabilizes </tspan><tspan x="28.2" y="49" dominant-baseline="ideographic">after immediate </tspan><tspan x="54.68" y="67" dominant-baseline="ideographic">actions.</tspan></text></g></g></g><g id="g-root-tx_security_zp1dqm11sjaj3-fill" data-item-order="0" transform="translate(567, 471.00006103515625)"><g id="tx_security_zp1dqm11sjaj3-fill" stroke="none" fill="#dffff0"><g><text style="font: 15px &quot;Roboto&quot;, sans-serif; white-space: pre;" font-size="15px" font-family="'Roboto', sans-serif"><tspan x="15.88" y="31" dominant-baseline="ideographic">Security groups are </tspan><tspan x="24.41" y="49" dominant-baseline="ideographic">updated to block </tspan><tspan x="53.49" y="67" dominant-baseline="ideographic">attacks.</tspan></text></g></g></g><g id="g-root-6.g-6_fr_1luvy6m11sc9hm-stroke" data-item-order="-557270" transform="translate(876, 111)"><g id="6.g-6_fr_1luvy6m11sc9hm-stroke" fill="none" stroke-linecap="round" stroke-linejoin="round" stroke-miterlimit="4" stroke="#2c2c2c" stroke-width="2"><g><path d="M 136.5037 52C 138.1093 48.3252 139 44.2666 139 40C 139 35.7334 138.1093 31.6748 136.5037 28L 157 28L 157 27C 157 25.8954 157.8954 25 159 25L 163 25L 163 55L 159 55C 157.8954 55 157 54.1046 157 53L 157 52L 136.5037 52ZM 81.4963 52L 61 52L 61 53C 61 54.1046 60.1046 55 59 55L 55 55L 55 25L 59 25C 60.1046 25 61 25.8954 61 27L 61 28L 81.4963 28C 79.8907 31.6748 79 35.7334 79 40C 79 44.2666 79.8907 48.3252 81.4963 52ZM 157 28L 157 52M 61 52L 61 28"></path></g></g><g id="6.g-6_fr_1luvy6m11sc9hm-stroke" fill="none" stroke-linecap="round" stroke-linejoin="round" stroke-miterlimit="4" stroke="#2c2c2c" stroke-width="2"><g><path d="M 10 130L 10 126C 10 124.8954 10.8954 124 12 124L 13 124L 13 76L 12 76C 10.8954 76 10 75.1046 10 74L 10 70L 40 70L 40 74C 40 75.1046 39.1046 76 38 76L 37 76L 37 124L 38 124C 39.1046 124 40 124.8954 40 126L 40 130L 10 130ZM 13 124L 37 124M 13 76L 37 76"></path></g></g><g id="6.g-6_fr_1luvy6m11sc9hm-stroke" fill="none" stroke-linecap="round" stroke-linejoin="round" stroke-miterlimit="4" stroke="#2c2c2c" stroke-width="2"><g><path d="M 13 52C 13 38.7452 23.7452 28 37 28L 49 28L 49 27C 49 25.8954 49.8954 25 51 25L 55 25L 55 55L 51 55C 49.8954 55 49 54.1046 49 53L 49 52L 41 52C 38.7909 52 37 53.7909 37 56L 37 64L 38 64C 39.1046 64 40 64.8954 40 66L 40 70L 10 70L 10 66C 10 64.8954 10.8954 64 12 64L 13 64L 13 52ZM 49 28L 49 52M 37 64L 13 64"></path></g></g><g id="6.g-6_fr_1luvy6m11sc9hm-stroke" fill="none" stroke-linecap="round" stroke-linejoin="round" stroke-miterlimit="4" stroke="#2c2c2c" stroke-width="2"><g><path d="M 139 40C 139 56.5685 125.5685 70 109 70C 92.4315 70 79 56.5685 79 40C 79 23.4315 92.4315 10 109 10C 125.5685 10 139 23.4315 139 40Z"></path></g></g></g><g id="g-root-5.g-5_fr_18k1wwe11sc7wv-stroke" data-item-order="-557266" transform="translate(708, 231)"><g id="5.g-5_fr_18k1wwe11sc7wv-stroke" fill="none" stroke-linecap="round" stroke-linejoin="round" stroke-miterlimit="4" stroke="#2c2c2c" stroke-width="2"><g><path d="M 136.5037 112C 138.1093 108.3252 139 104.2666 139 100C 139 95.7334 138.1093 91.6748 136.5037 88L 157 88L 157 87C 157 85.8954 157.8954 85 159 85L 163 85L 163 115L 159 115C 157.8954 115 157 114.1046 157 113L 157 112L 136.5037 112ZM 81.4963 112L 61 112L 61 113C 61 114.1046 60.1046 115 59 115L 55 115L 55 85L 59 85C 60.1046 85 61 85.8954 61 87L 61 88L 81.4963 88C 79.8907 91.6748 79 95.7334 79 100C 79 104.2666 79.8907 108.3252 81.4963 112ZM 157 88L 157 112M 61 112L 61 88"></path></g></g><g id="5.g-5_fr_18k1wwe11sc7wv-stroke" fill="none" stroke-linecap="round" stroke-linejoin="round" stroke-miterlimit="4" stroke="#2c2c2c" stroke-width="2"><g><path d="M 10 70L 10 66C 10 64.8954 10.8954 64 12 64L 13 64L 13 46L 12 46C 10.8954 46 10 45.1046 10 44L 10 40L 40 40L 40 44C 40 45.1046 39.1046 46 38 46L 37 46L 37 64L 38 64C 39.1046 64 40 64.8954 40 66L 40 70L 10 70ZM 13 64L 37 64M 13 46L 37 46"></path></g></g><g id="5.g-5_fr_18k1wwe11sc7wv-stroke" fill="none" stroke-linecap="round" stroke-linejoin="round" stroke-miterlimit="4" stroke="#2c2c2c" stroke-width="2"><g><path d="M 178 70L 178 66C 178 64.8954 178.8954 64 180 64L 181 64L 181 16L 180 16C 178.8954 16 178 15.1046 178 14L 178 10L 208 10L 208 14C 208 15.1046 207.1046 16 206 16L 205 16L 205 64L 206 64C 207.1046 64 208 64.8954 208 66L 208 70L 178 70ZM 181 64L 205 64M 181 16L 205 16"></path></g></g><g id="5.g-5_fr_18k1wwe11sc7wv-stroke" fill="none" stroke-linecap="round" stroke-linejoin="round" stroke-miterlimit="4" stroke="#2c2c2c" stroke-width="2"><g><path d="M 13 88C 13 101.2548 23.7452 112 37 112L 49 112L 49 113C 49 114.1046 49.8954 115 51 115L 55 115L 55 85L 51 85C 49.8954 85 49 85.8954 49 87L 49 88L 41 88C 38.7909 88 37 86.2091 37 84L 37 76L 38 76C 39.1046 76 40 75.1046 40 74L 40 70L 10 70L 10.000001 74C 10.000001 75.1046 10.8954 76 12 76L 13 76L 13 88ZM 49 112L 49 88M 37 76L 13 76"></path></g></g><g id="5.g-5_fr_18k1wwe11sc7wv-stroke" fill="none" stroke-linecap="round" stroke-linejoin="round" stroke-miterlimit="4" stroke="#2c2c2c" stroke-width="2"><g><path d="M 205 88C 205 101.2548 194.2548 112 181 112L 169 112L 169 113C 169 114.1046 168.1046 115 167 115L 163 115L 163 85L 167 85C 168.1046 85 169 85.8954 169 87L 169 88L 177 88C 179.2091 88 181 86.2091 181 84L 181 76L 180 76C 178.8954 76 178 75.1046 178 74L 178 70L 208 70L 208 74C 208 75.1046 207.1046 76 206 76L 205 76L 205 88ZM 169 112L 169 88M 181 76L 205 76"></path></g></g><g id="5.g-5_fr_18k1wwe11sc7wv-stroke" fill="none" stroke-linecap="round" stroke-linejoin="round" stroke-miterlimit="4" stroke="#2c2c2c" stroke-width="2"><g><path d="M 139 100C 139 116.5685 125.5685 130 109 130C 92.4315 130 79 116.5685 79 100C 79 83.4315 92.4315 70 109 70C 125.5685 70 139 83.4315 139 100Z"></path></g></g></g><g id="g-root-4.g-4_fr_qsrwem11scaa6-stroke" data-item-order="-557262" transform="translate(540, 171)"><g id="4.g-4_fr_qsrwem11scaa6-stroke" fill="none" stroke-linecap="round" stroke-linejoin="round" stroke-miterlimit="4" stroke="#2c2c2c" stroke-width="2"><g><path d="M 136.5037 52C 138.1093 48.3252 139 44.2666 139 40C 139 35.7334 138.1093 31.6748 136.5037 28L 157 28L 157 27C 157 25.8954 157.8954 25 159 25L 163 25L 163 55L 159 55C 157.8954 55 157 54.1046 157 53L 157 52L 136.5037 52ZM 81.4963 52L 61 52L 61 53C 61 54.1046 60.1046 55 59 55L 55 55L 55 25L 59 25C 60.1046 25 61 25.8954 61 27L 61 28L 81.4963 28C 79.8907 31.6748 79 35.7334 79 40C 79 44.2666 79.8907 48.3252 81.4963 52ZM 157 28L 157 52M 61 52L 61 28"></path></g></g><g id="4.g-4_fr_qsrwem11scaa6-stroke" fill="none" stroke-linecap="round" stroke-linejoin="round" stroke-miterlimit="4" stroke="#2c2c2c" stroke-width="2"><g><path d="M 178 100L 178 96C 178 94.8954 178.8954 94 180 94L 181 94L 181 76L 180 76C 178.8954 76 178 75.1046 178 74L 178 70L 208 70L 208 74C 208 75.1046 207.1046 76 206 76L 205 76L 205 94L 206 94C 207.1046 94 208 94.8954 208 96L 208 100L 178 100ZM 181 94L 205 94M 181 76L 205 76"></path></g></g><g id="4.g-4_fr_qsrwem11scaa6-stroke" fill="none" stroke-linecap="round" stroke-linejoin="round" stroke-miterlimit="4" stroke="#2c2c2c" stroke-width="2"><g><path d="M 13 52C 13 38.7452 23.7452 28 37 28L 49 28L 49 27C 49 25.8954 49.8954 25 51 25L 55 25L 55 55L 51 55C 49.8954 55 49 54.1046 49 53L 49 52L 41 52C 38.7909 52 37 53.7909 37 56L 37 64L 38 64C 39.1046 64 40 64.8954 40 66L 40 70L 10 70L 10 66C 10 64.8954 10.8954 64 12 64L 13 64L 13 52ZM 49 28L 49 52M 37 64L 13 64"></path></g></g><g id="4.g-4_fr_qsrwem11scaa6-stroke" fill="none" stroke-linecap="round" stroke-linejoin="round" stroke-miterlimit="4" stroke="#2c2c2c" stroke-width="2"><g><path d="M 205 52C 205 38.7452 194.2548 28 181 28L 169 28L 169 27C 169 25.8954 168.1046 25 167 25L 163 25L 163 55L 167 55C 168.1046 55 169 54.1046 169 53L 169 52L 177 52C 179.2091 52 181 53.7909 181 56L 181 64L 180 64C 178.8954 64 178 64.8954 178 66L 178 70L 208 70L 208 66C 208 64.8954 207.1046 64 206 64L 205 64L 205 52ZM 169 28L 169 52M 181 64L 205 64"></path></g></g><g id="4.g-4_fr_qsrwem11scaa6-stroke" fill="none" stroke-linecap="round" stroke-linejoin="round" stroke-miterlimit="4" stroke="#2c2c2c" stroke-width="2"><g><path d="M 139 40C 139 56.5685 125.5685 70 109 70C 92.4315 70 79 56.5685 79 40C 79 23.4315 92.4315 10 109 10C 125.5685 10 139 23.4315 139 40Z"></path></g></g></g><g id="g-root-3.g-3_fr_hxrd8u11sc8p0-stroke" data-item-order="-557258" transform="translate(372, 201)"><g id="3.g-3_fr_hxrd8u11sc8p0-stroke" fill="none" stroke-linecap="round" stroke-linejoin="round" stroke-miterlimit="4" stroke="#2c2c2c" stroke-width="2"><g><path d="M 136.5037 82C 138.1093 78.3252 139 74.2666 139 70C 139 65.7334 138.1093 61.6748 136.5037 58L 157 58L 157 57C 157 55.8954 157.8954 55 159 55L 163 55L 163 85L 159 85C 157.8954 85 157 84.1046 157 83L 157 82L 136.5037 82ZM 81.4963 82L 61 82L 61 83C 61 84.1046 60.1046 85 59 85L 55 85L 55 55L 59 55C 60.1046 55 61 55.8954 61 57L 61 58L 81.4963 58C 79.8907 61.6748 79 65.7334 79 70C 79 74.2666 79.8907 78.3252 81.4963 82ZM 157 58L 157 82M 61 82L 61 58"></path></g></g><g id="3.g-3_fr_hxrd8u11sc8p0-stroke" fill="none" stroke-linecap="round" stroke-linejoin="round" stroke-miterlimit="4" stroke="#2c2c2c" stroke-width="2"><g><path d="M 10 40L 10 36C 10 34.8954 10.8954 34 12 34L 13 34L 13 16L 12 16C 10.8954 16 10 15.1046 10 14L 10 10L 40 10L 40 14C 40 15.1046 39.1046 16 38 16L 37 16L 37 34L 38 34C 39.1046 34 40 34.8954 40 36L 40 40L 10 40ZM 13 34L 37 34M 13 16L 37 16"></path></g></g><g id="3.g-3_fr_hxrd8u11sc8p0-stroke" fill="none" stroke-linecap="round" stroke-linejoin="round" stroke-miterlimit="4" stroke="#2c2c2c" stroke-width="2"><g><path d="M 205 58C 205 71.2548 194.2548 82 181 82L 169 82L 169 83C 169 84.1046 168.1046 85 167 85L 163 85L 163 55L 167 55C 168.1046 55 169 55.8954 169 57L 169 58L 177 58C 179.2091 58 181 56.2091 181 54L 181 46L 180 46C 178.8954 46 178 45.1046 178 44L 178 40L 208 40L 208 44C 208 45.1046 207.1046 46 206 46L 205 46L 205 58ZM 169 82L 169 58M 181 46L 205 46"></path></g></g><g id="3.g-3_fr_hxrd8u11sc8p0-stroke" fill="none" stroke-linecap="round" stroke-linejoin="round" stroke-miterlimit="4" stroke="#2c2c2c" stroke-width="2"><g><path d="M 13 58C 13 71.2548 23.7452 82 37 82L 49 82L 49 83C 49 84.1046 49.8954 85 51 85L 55 85L 55 55L 51 55C 49.8954 55 49 55.8954 49 57L 49 58L 41 58C 38.7909 58 37 56.2091 37 54L 37 46L 38 46C 39.1046 46 40 45.1046 40 44L 40 40L 10 40L 10.000001 44C 10.000001 45.1046 10.8954 46 12 46L 13 46L 13 58ZM 49 82L 49 58M 37 46L 13 46"></path></g></g><g id="3.g-3_fr_hxrd8u11sc8p0-stroke" fill="none" stroke-linecap="round" stroke-linejoin="round" stroke-miterlimit="4" stroke="#2c2c2c" stroke-width="2"><g><path d="M 139 70C 139 86.5685 125.5685 100 109 100C 92.4315 100 79 86.5685 79 70C 79 53.4315 92.4315 40 109 40C 125.5685 40 139 53.4315 139 70Z"></path></g></g></g><g id="g-root-2.g-2_fr_1lwrdfy11sc9aa-stroke" data-item-order="-557254" transform="translate(204, 111)"><g id="2.g-2_fr_1lwrdfy11sc9aa-stroke" fill="none" stroke-linecap="round" stroke-linejoin="round" stroke-miterlimit="4" stroke="#2c2c2c" stroke-width="2"><g><path d="M 136.5037 52C 138.1093 48.3252 139 44.2666 139 40C 139 35.7334 138.1093 31.6748 136.5037 28L 157 28L 157 27C 157 25.8954 157.8954 25 159 25L 163 25L 163 55L 159 55C 157.8954 55 157 54.1046 157 53L 157 52L 136.5037 52ZM 81.4963 52L 61 52L 61 53C 61 54.1046 60.1046 55 59 55L 55 55L 55 25L 59 25C 60.1046 25 61 25.8954 61 27L 61 28L 81.4963 28C 79.8907 31.6748 79 35.7334 79 40C 79 44.2666 79.8907 48.3252 81.4963 52ZM 157 28L 157 52M 61 52L 61 28"></path></g></g><g id="2.g-2_fr_1lwrdfy11sc9aa-stroke" fill="none" stroke-linecap="round" stroke-linejoin="round" stroke-miterlimit="4" stroke="#2c2c2c" stroke-width="2"><g><path d="M 178 100L 178 96C 178 94.8954 178.8954 94 180 94L 181 94L 181 76L 180 76C 178.8954 76 178 75.1046 178 74L 178 70L 208 70L 208 74C 208 75.1046 207.1046 76 206 76L 205 76L 205 94L 206 94C 207.1046 94 208 94.8954 208 96L 208 100L 178 100ZM 181 94L 205 94M 181 76L 205 76"></path></g></g><g id="2.g-2_fr_1lwrdfy11sc9aa-stroke" fill="none" stroke-linecap="round" stroke-linejoin="round" stroke-miterlimit="4" stroke="#2c2c2c" stroke-width="2"><g><path d="M 10 130L 10 126C 10 124.8954 10.8954 124 12 124L 13 124L 13 76L 12 76C 10.8954 76 10 75.1046 10 74L 10 70L 40 70L 40 74C 40 75.1046 39.1046 76 38 76L 37 76L 37 124L 38 124C 39.1046 124 40 124.8954 40 126L 40 130L 10 130ZM 13 124L 37 124M 13 76L 37 76"></path></g></g><g id="2.g-2_fr_1lwrdfy11sc9aa-stroke" fill="none" stroke-linecap="round" stroke-linejoin="round" stroke-miterlimit="4" stroke="#2c2c2c" stroke-width="2"><g><path d="M 205 52C 205 38.7452 194.2548 28 181 28L 169 28L 169 27C 169 25.8954 168.1046 25 167 25L 163 25L 163 55L 167 55C 168.1046 55 169 54.1046 169 53L 169 52L 177 52C 179.2091 52 181 53.7909 181 56L 181 64L 180 64C 178.8954 64 178 64.8954 178 66L 178 70L 208 70L 208 66C 208 64.8954 207.1046 64 206 64L 205 64L 205 52ZM 169 28L 169 52M 181 64L 205 64"></path></g></g><g id="2.g-2_fr_1lwrdfy11sc9aa-stroke" fill="none" stroke-linecap="round" stroke-linejoin="round" stroke-miterlimit="4" stroke="#2c2c2c" stroke-width="2"><g><path d="M 13 52C 13 38.7452 23.7452 28 37 28L 49 28L 49 27C 49 25.8954 49.8954 25 51 25L 55 25L 55 55L 51 55C 49.8954 55 49 54.1046 49 53L 49 52L 41 52C 38.7909 52 37 53.7909 37 56L 37 64L 38 64C 39.1046 64 40 64.8954 40 66L 40 70L 10 70L 10 66C 10 64.8954 10.8954 64 12 64L 13 64L 13 52ZM 49 28L 49 52M 37 64L 13 64"></path></g></g><g id="2.g-2_fr_1lwrdfy11sc9aa-stroke" fill="none" stroke-linecap="round" stroke-linejoin="round" stroke-miterlimit="4" stroke="#2c2c2c" stroke-width="2"><g><path d="M 139 40C 139 56.5685 125.5685 70 109 70C 92.4315 70 79 56.5685 79 40C 79 23.4315 92.4315 10 109 10C 125.5685 10 139 23.4315 139 40Z"></path></g></g></g><g id="g-root-1.g-1_fr_1463u1a11sc8ht-stroke" data-item-order="-557250" transform="translate(81, 231)"><g id="1.g-1_fr_1463u1a11sc8ht-stroke" fill="none" stroke-linecap="round" stroke-linejoin="round" stroke-miterlimit="4" stroke="#2c2c2c" stroke-width="2"><g><path d="M 133 69.999999L 133 65.999999C 133 64.895399 133.8954 63.999999 135 63.999999L 136 63.999999L 136 15.999999L 135 15.999999C 133.8954 15.999999 133 15.104599 133 13.999999L 133 9.999999L 163 9.999999L 163 13.999999C 163 15.104599 162.1046 15.999999 161 15.999999L 160 15.999999L 160 63.999999L 161 63.999999C 162.1046 63.999999 163 64.895399 163 65.999999L 163 69.999999L 133 69.999999ZM 136 63.999999L 160 63.999999M 136 15.999999L 160 15.999999"></path></g></g><g id="1.g-1_fr_1463u1a11sc8ht-stroke" fill="none" stroke-linecap="round" stroke-linejoin="round" stroke-miterlimit="4" stroke="#2c2c2c" stroke-width="2"><g><path d="M 91.5037 112C 93.1093 108.3252 94 104.2666 94 100C 94 95.7334 93.1093 91.6748 91.5037 88L 112 88L 112 87C 112 85.8954 112.8954 85 114 85L 118 85L 118 115L 114 115C 112.8954 115 112 114.1046 112 113L 112 112L 91.5037 112ZM 36.4963 112L 16 112L 16 113C 16 114.1046 15.1046 115 14 115L 10 115L 10 85L 14 85C 15.1046 85 16 85.8954 16 87L 16 88L 36.4963 88C 34.8907 91.6748 34 95.7334 34 100C 34 104.2666 34.8907 108.3252 36.4963 112ZM 112 88L 112 112M 16 112L 16 88"></path></g></g><g id="1.g-1_fr_1463u1a11sc8ht-stroke" fill="none" stroke-linecap="round" stroke-linejoin="round" stroke-miterlimit="4" stroke="#2c2c2c" stroke-width="2"><g><path d="M 160 88.000004C 160 101.254804 149.2548 112.000004 136 112.000004L 124 112.000004L 124 113.000004C 124 114.104604 123.1046 115.000004 122 115.000004L 118 115.000004L 118 85.000004L 122 85.000004C 123.1046 85.000004 124 85.895404 124 87.000004L 124 88.000004L 132 88.000004C 134.2091 88.000004 136 86.209104 136 84.000004L 136 76.000004L 135 76.000004C 133.8954 76.000004 133 75.104604 133 74.000004L 133 70.000004L 163 70.000004L 163 74.000004C 163 75.104604 162.1046 76.000004 161 76.000004L 160 76.000004L 160 88.000004ZM 124 112.000004L 124 88.000004M 136 76.000004L 160 76.000004"></path></g></g><g id="1.g-1_fr_1463u1a11sc8ht-stroke" fill="none" stroke-linecap="round" stroke-linejoin="round" stroke-miterlimit="4" stroke="#2c2c2c" stroke-width="2"><g><path d="M 94 100C 94 116.5685 80.5685 130 64 130C 47.4315 130 34 116.5685 34 100C 34 83.4315 47.4315 70 64 70C 80.5685 70 94 83.4315 94 100Z"></path></g></g></g><g id="g-root-unpr_1ly0bm611sdouh-stroke" data-item-order="0" transform="translate(621, 183)"><g id="unpr_1ly0bm611sdouh-stroke" fill="none" stroke-linecap="round" stroke-linejoin="round" stroke-miterlimit="4" stroke="#2c2c2c" stroke-width="2"><g><path d="M 22.526501 40.8055C 23.408051 41.370716 24.344887 41.844662 25.322498 42.220001L 26.672501 42.740501C 27.573805 43.087219 28.571693 43.087219 29.473 42.740501L 30.823 42.220001C 36.802528 39.922539 40.749092 34.179207 40.75 27.7735L 40.75 22.75M 40.031502 15.9685C 36.04105 13.976225 31.634949 12.958879 27.174999 13C 23.202198 12.962125 19.266228 13.764143 15.625 15.3535C 14.933796 15.671648 14.493459 16.36562 14.5 17.126499L 14.5 27.026501C 14.503003 30.88446 15.947463 34.602074 18.549999 37.449997M 45.25 10.75L 10.75 45.25"></path></g></g></g><g id="g-root-1_8cs0e11sca2v-stroke" data-item-order="0" transform="translate(957, 123)"><g id="1_8cs0e11sca2v-stroke" fill="none" stroke-linecap="round" stroke-linejoin="round" stroke-miterlimit="4" stroke="#2c2c2c" stroke-width="2"><g><path d="M 24.400002 21.586C 21.691845 20.827068 18.784538 21.381138 16.545343 23.082926C 14.306149 24.784716 12.993882 27.437521 13 30.250002L 13 38.5C 13 39.742641 11.99264 40.75 10.75 40.75L 33.25 40.75C 32.007362 40.75 31 39.742641 31 38.5L 31 30.528999M 24.122499 43.75C 23.805021 44.649609 22.954737 45.251221 22.000751 45.251221C 21.046764 45.251221 20.19648 44.649609 19.879 43.75M 22 18.251499L 22 21.251499M 24.400002 21.586C 21.691845 20.827068 18.784538 21.381138 16.545343 23.082926C 14.306149 24.784716 12.993882 27.437521 13 30.250002L 13 38.5C 13 39.742641 11.99264 40.75 10.75 40.75L 33.25 40.75C 32.007362 40.75 31 39.742641 31 38.5L 31 30.528999M 24.122499 43.75C 23.805021 44.649609 22.954737 45.251221 22.000751 45.251221C 21.046764 45.251221 20.19648 44.649609 19.879 43.75M 22 18.251499L 22 21.251499M 27.25 19.753C 27.250002 24.723564 31.279438 28.753 36.25 28.753C 41.220566 28.753 45.25 24.723564 45.25 19.753C 45.25 14.782437 41.220566 10.753 36.25 10.753C 31.279438 10.753 27.250002 14.782437 27.250002 19.753ZM 40.261002 17.136999L 35.9035 22.946499C 35.707386 23.207012 35.408134 23.369911 35.082893 23.393204C 34.757648 23.416498 34.438232 23.297905 34.207001 23.068001L 31.956999 20.818001"></path></g></g></g><g id="g-root-aler_8cs0e11sf0uj-stroke" data-item-order="0" transform="translate(285, 123)"><g id="aler_8cs0e11sf0uj-stroke" fill="none" stroke-linecap="round" stroke-linejoin="round" stroke-miterlimit="4" stroke="#2c2c2c" stroke-width="2"><g><path d="M 25.337502 36.979L 13.921 36.979C 12.169705 36.979 10.75 35.559296 10.75 33.808002L 10.75 13.993C 10.75 12.241705 12.169705 10.822001 13.921 10.822L 37.698997 10.822C 39.449711 10.822828 40.8685 12.24229 40.8685 13.993L 40.8685 25.18M 10.75 17.014L 40.8685 17.014M 10.75 30.1705L 27.3055 30.1705M 10.75 23.601999L 40.8685 23.601999M 23.0515 17.014L 23.0515 36.979M 31.8715 17.014L 31.8715 26.0725M 36.277 40.691502C 35.967171 40.691505 35.716003 40.942669 35.716003 41.252502C 35.716003 41.562332 35.967171 41.813503 36.277 41.813503C 36.586834 41.813503 36.838005 41.562332 36.838005 41.252502C 36.838005 40.942669 36.586834 40.691505 36.277 40.691505L 36.277 40.691502M 36.277 37.327L 36.277 32.8405M 44.971001 41.336502C 45.381187 42.159485 45.336594 43.136066 44.853115 43.918243C 44.369637 44.700424 43.516041 45.176945 42.5965 45.178001L 29.9575 45.178001C 29.038227 45.176426 28.185106 44.699696 27.70199 43.917606C 27.218872 43.135521 27.174433 42.159245 27.584501 41.336502L 33.903999 28.6975C 34.353626 27.798935 35.272221 27.231407 36.277 27.231407C 37.28178 27.231407 38.200375 27.798935 38.650002 28.6975Z"></path></g></g></g><g id="g-root-plur_de70lq11sf30q-stroke" data-item-order="0" transform="translate(453, 243)"><g id="plur_de70lq11sf30q-stroke" fill="none" stroke-linecap="round" stroke-linejoin="round" stroke-miterlimit="4" stroke="#2c2c2c" stroke-width="2"><g><path d="M 27.647501 45.25L 27.647501 25.0135M 23.150501 30.258999L 23.150501 43.001499L 19.4035 43.001499L 19.4035 45.25M 14.1565 45.25L 14.1565 38.504501L 18.6535 38.504501L 18.6535 32.5075M 32.144501 30.258999L 32.144501 43.001499L 35.892998 43.001499L 35.892998 45.25M 41.139999 45.25L 41.139999 38.504501L 36.642998 38.504501L 36.642998 32.5075M 39.25 30.549999C 42.386452 29.750612 44.560585 26.898153 44.5 23.661999C 44.501411 21.714922 43.709751 19.851248 42.307446 18.50045C 40.905144 17.149652 39.013161 16.428255 37.067497 16.502499C 35.113335 12.354864 30.594894 10.060943 26.09329 10.931114C 21.591684 11.801285 18.253649 15.613882 17.986 20.191C 16.400703 19.857609 14.749578 20.256441 13.491261 21.276712C 12.232945 22.296986 11.501463 23.830027 11.5 25.450001C 11.359351 27.950396 13.105051 30.163246 15.5695 30.608501"></path></g></g></g><g id="g-root-tx_serverat_qunbny11sca2u-stroke" data-item-order="0" transform="translate(381, 39)"></g><g id="g-root-1_18hk0jy11sghsc-stroke" data-item-order="0" transform="translate(117, 303)"><g id="1_18hk0jy11sghsc-stroke" fill="none" stroke-linecap="round" stroke-linejoin="round" stroke-miterlimit="4" stroke="#2c2c2c" stroke-width="2"><g><path d="M 36.25 40.75C 36.042892 40.75 35.875 40.917892 35.875 41.125C 35.875 41.332108 36.042892 41.5 36.25 41.5C 36.457108 41.5 36.625 41.332108 36.625 41.125C 36.625 40.917892 36.457108 40.75 36.25 40.75L 36.25 40.75M 36.25 37.75L 36.25 33.25M 37.507 28.75C 37.259224 28.286013 36.776001 27.99625 36.25 27.99625C 35.723999 27.99625 35.240776 28.286013 34.993 28.75L 27.409 43.201C 27.181095 43.634098 27.198772 44.155338 27.4555 44.571999C 27.714775 44.991367 28.172962 45.246292 28.666002 45.245502L 43.834 45.245499C 44.326668 45.246323 44.784657 44.992073 45.044502 44.573502C 45.301224 44.156837 45.318901 43.635597 45.091 43.202499ZM 18.25 40.75L 22.75 40.75M 22.751501 33.25L 22.751501 40.75M 14.875 40C 14.667893 40 14.5 40.167892 14.5 40.375C 14.5 40.582108 14.667893 40.75 14.875 40.75C 15.082107 40.75 15.25 40.582108 15.25 40.375C 15.25 40.167892 15.082107 40 14.875 40L 14.875 40M 11.125 40C 10.917893 40 10.75 40.167892 10.75 40.375C 10.75 40.582108 10.917893 40.75 11.125 40.75C 11.332107 40.75 11.5 40.582108 11.5 40.375C 11.5 40.167892 11.332107 40 11.125 40L 11.125 40M 16.375 29.125C 16.167892 29.125 16 29.292892 16 29.5C 16 29.707108 16.167892 29.875 16.375 29.875C 16.582108 29.875 16.75 29.707108 16.75 29.5C 16.75 29.292892 16.582108 29.125 16.375 29.125L 16.375 29.125M 20.125 29.125C 19.917892 29.125 19.75 29.292892 19.75 29.5C 19.75 29.707108 19.917892 29.875 20.125 29.875C 20.332108 29.875 20.5 29.707108 20.5 29.5C 20.5 29.292892 20.332108 29.125 20.125 29.125L 20.125 29.125M 31.75 25.75L 14.5 25.75C 12.428932 25.75 10.75 27.428932 10.75 29.5C 10.75 31.571068 12.428932 33.25 14.5 33.25L 27.25 33.25M 16.375 21.625C 16.167892 21.625 16 21.792892 16 22C 16 22.207108 16.167892 22.375 16.375 22.375C 16.582108 22.375 16.75 22.207108 16.75 22C 16.75 21.792892 16.582108 21.625 16.375 21.625L 16.375 21.625M 20.125 21.625C 19.917892 21.625 19.75 21.792892 19.75 22C 19.75 22.207108 19.917892 22.375 20.125 22.375C 20.332108 22.375 20.5 22.207108 20.5 22C 20.5 21.792892 20.332108 21.625 20.125 21.625L 20.125 21.625M 36.25 22C 36.25 19.928932 34.571068 18.25 32.5 18.25L 14.5 18.25C 12.428932 18.25 10.75 19.928932 10.75 22C 10.75 24.071068 12.428932 25.75 14.5 25.75L 31.75 25.75M 16.375 14.125C 16.167892 14.125 16 14.292893 16 14.5C 16 14.707107 16.167892 14.875 16.375 14.875C 16.582108 14.875 16.75 14.707107 16.75 14.5C 16.75 14.292893 16.582108 14.125 16.375 14.125L 16.375 14.125M 20.125 14.125C 19.917892 14.125 19.75 14.292893 19.75 14.5C 19.75 14.707107 19.917892 14.875 20.125 14.875C 20.332108 14.875 20.5 14.707107 20.5 14.5C 20.5 14.292893 20.332108 14.125 20.125 14.125L 20.125 14.125M 36.25 14.5C 36.25 12.428932 34.571068 10.75 32.5 10.75L 14.5 10.75C 12.428932 10.75 10.75 12.428932 10.75 14.5C 10.75 16.571068 12.428932 18.25 14.5 18.25L 32.5 18.25C 34.571068 18.25 36.25 16.571068 36.25 14.5Z"></path></g></g></g><g id="g-root-warn_1ltn00e11sdma0-stroke" data-item-order="0" transform="translate(789, 303)"><g id="warn_1ltn00e11sdma0-stroke" fill="none" stroke-linecap="round" stroke-linejoin="round" stroke-miterlimit="4" stroke="#2c2c2c" stroke-width="2"><g><path d="M 42.25 16.75C 42.25 18.406855 40.906857 19.75 39.25 19.75L 13.75 19.75C 12.093145 19.75 10.75 18.406855 10.75 16.75L 10.75 13.75C 10.75 12.093145 12.093145 10.75 13.75 10.75L 39.25 10.75C 40.906857 10.75 42.25 12.093145 42.25 13.75ZM 13.75 28.75C 12.093145 28.75 10.75 27.406855 10.75 25.75L 10.75 22.75C 10.75 21.093145 12.093145 19.75 13.75 19.75L 39.25 19.75C 40.906857 19.75 42.25 21.093145 42.25 22.75L 42.25 25.75M 17.125 14.875C 16.917892 14.875 16.75 15.042893 16.75 15.25C 16.75 15.457107 16.917892 15.625 17.125 15.625C 17.332108 15.625 17.5 15.457107 17.5 15.25C 17.5 15.042893 17.332108 14.875 17.125 14.875L 17.125 14.875M 22.375 14.875C 22.167892 14.875 22 15.042893 22 15.25C 22 15.457107 22.167892 15.625 22.375 15.625C 22.582108 15.625 22.75 15.457107 22.75 15.25C 22.75 15.042893 22.582108 14.875 22.375 14.875L 22.375 14.875M 17.125 23.875C 16.917892 23.875 16.75 24.042892 16.75 24.25C 16.75 24.457108 16.917892 24.625 17.125 24.625C 17.332108 24.625 17.5 24.457108 17.5 24.25C 17.5 24.042892 17.332108 23.875 17.125 23.875L 17.125 23.875M 22.375 23.875C 22.167892 23.875 22 24.042892 22 24.25C 22 24.457108 22.167892 24.625 22.375 24.625C 22.582108 24.625 22.75 24.457108 22.75 24.25C 22.75 24.042892 22.582108 23.875 22.375 23.875L 22.375 23.875M 26.5 37.75L 13.75 37.75C 12.093145 37.75 10.75 36.406857 10.75 34.75L 10.75 31.75C 10.75 30.093145 12.093145 28.75 13.75 28.75L 30.25 28.75M 17.125 32.875C 16.917892 32.875 16.75 33.042892 16.75 33.25C 16.75 33.457108 16.917892 33.625 17.125 33.625C 17.332108 33.625 17.5 33.457108 17.5 33.25C 17.5 33.042892 17.332108 32.875 17.125 32.875L 17.125 32.875M 22.375 32.875C 22.167892 32.875 22 33.042892 22 33.25C 22 33.457108 22.167892 33.625 22.375 33.625C 22.582108 33.625 22.75 33.457108 22.75 33.25C 22.75 33.042892 22.582108 32.875 22.375 32.875L 22.375 32.875M 36.25 40.75C 36.042892 40.75 35.875 40.917892 35.875 41.125C 35.875 41.332108 36.042892 41.5 36.25 41.5C 36.457108 41.5 36.625 41.332108 36.625 41.125C 36.625 40.917892 36.457108 40.75 36.25 40.75L 36.25 40.75M 36.25 37.75L 36.25 33.25M 37.507 28.75C 37.259224 28.286013 36.776001 27.99625 36.25 27.99625C 35.723999 27.99625 35.240776 28.286013 34.993 28.75L 27.409 43.201C 27.181095 43.634098 27.198772 44.155338 27.4555 44.571999C 27.714775 44.991367 28.172962 45.246292 28.666002 45.245502L 43.834 45.245499C 44.326668 45.246323 44.784657 44.992073 45.044502 44.573502C 45.301224 44.156837 45.318901 43.635597 45.091 43.202499Z"></path></g></g></g><g id="g-root-48px_1lz99se11sghs7-stroke" data-item-order="0" transform="translate(117, 363)"><g id="48px_1lz99se11sghs7-stroke" fill="none" stroke-linecap="round" stroke-linejoin="round" stroke-miterlimit="4" stroke="#f4f4f4" stroke-width="2"><g><path d="M 30.881351 20.033051L 37.222675 17.637701L 37.222675 38.463249M 13.804202 25.133875C 13.804202 20.861275 15.841548 17.271431 19.758026 17.271431C 23.674599 17.271431 25.711899 20.861275 25.711899 25.133875L 25.711899 30.454525C 25.711899 34.727127 23.57905 38.411201 19.758026 38.411201C 15.937067 38.411201 13.804202 34.727127 13.804202 30.454525L 13.804202 25.133875Z"></path></g></g></g><g id="g-root-48px_18jffta11shu6i-stroke" data-item-order="0" transform="translate(285, 363)"><g id="48px_18jffta11shu6i-stroke" fill="none" stroke-linecap="round" stroke-linejoin="round" stroke-miterlimit="4" stroke="#f4f4f4" stroke-width="2"><g><path d="M 13.804202 25.133875C 13.804202 20.861275 15.841548 17.271431 19.758026 17.271431C 23.674599 17.271431 25.711899 20.861275 25.711899 25.133875L 25.711899 30.454525C 25.711899 34.727127 23.57905 38.411201 19.758026 38.411201C 15.937067 38.411201 13.804202 34.727127 13.804202 30.454525L 13.804202 25.133875ZM 30.123625 23.136551C 30.123625 19.671326 32.541924 17.271482 35.828201 17.271482C 41.279949 17.271482 43.139427 22.59145 39.565975 27.323799L 30.497499 38.063126L 42.963024 38.063126"></path></g></g></g><g id="g-root-48px_dcblce11sj8xx-stroke" data-item-order="0" transform="translate(453, 363)"><g id="48px_dcblce11sj8xx-stroke" fill="none" stroke-linecap="round" stroke-linejoin="round" stroke-miterlimit="4" stroke="#f4f4f4" stroke-width="2"><g><path d="M 13.804202 25.133875C 13.804202 20.861275 15.841548 17.271431 19.758026 17.271431C 23.674599 17.271431 25.711899 20.861275 25.711899 25.133875L 25.711899 30.454525C 25.711899 34.727127 23.57905 38.411201 19.758026 38.411201C 15.937067 38.411201 13.804202 34.727127 13.804202 30.454525L 13.804202 25.133875ZM 30.3409 22.801075C 30.251575 20.9944 31.36195 17.282455 36.298973 17.282455C 41.236 17.282455 41.992226 20.94805 41.821152 23.01775C 41.632526 25.299925 40.20385 27.630924 34.150524 27.630924C 39.785202 27.630924 42.344124 29.171501 42.344124 33.343376C 42.344124 36.9496 39.156624 38.417351 36.244148 38.417351C 34.151051 38.399502 29.964701 37.215324 29.964701 32.621651"></path></g></g></g><g id="g-root-48px_hyduby11sj9qg-stroke" data-item-order="0" transform="translate(621, 363)"><g id="48px_hyduby11sj9qg-stroke" fill="none" stroke-linecap="round" stroke-linejoin="round" stroke-miterlimit="4" stroke="#f4f4f4" stroke-width="2"><g><path d="M 13.804202 25.134251C 13.804202 20.86165 15.841548 17.271797 19.758026 17.271797C 23.674599 17.271797 25.711899 20.86165 25.711899 25.134251L 25.711899 30.454899C 25.711899 34.727501 23.57905 38.411575 19.758026 38.411575C 15.937067 38.411575 13.804202 34.727501 13.804202 30.454899L 13.804202 25.134251ZM 39.93235 38.4841L 39.93235 17.163452L 29.721176 32.303501L 43.986027 32.303501"></path></g></g></g><g id="g-root-48px_2qi8e11skmwz-stroke" data-item-order="0" transform="translate(789, 363)"><g id="48px_2qi8e11skmwz-stroke" fill="none" stroke-linecap="round" stroke-linejoin="round" stroke-miterlimit="4" stroke="#f4f4f4" stroke-width="2"><g><path d="M 13.804202 25.134251C 13.804202 20.86165 15.841548 17.271797 19.758026 17.271797C 23.674599 17.271797 25.711899 20.86165 25.711899 25.134251L 25.711899 30.454899C 25.711899 34.727501 23.57905 38.411575 19.758026 38.411575C 15.937067 38.411575 13.804202 34.727501 13.804202 30.454899L 13.804202 25.134251ZM 42.769974 17.59045L 32.7841 17.59045L 31.74085 27.35815C 32.362675 26.73625 34.264824 25.492451 36.898827 25.492451C 39.978325 25.492451 42.859375 27.585024 42.570248 32.539299C 42.270851 37.670349 39.183998 38.42815 36.646374 38.42815C 33.958374 38.42815 31.303751 36.520676 31.0546 32.923752"></path></g></g></g><g id="g-root-48px_hzmsi611skpae-stroke" data-item-order="0" transform="translate(957.5, 363)"><g id="48px_hzmsi611skpae-stroke" fill="none" stroke-linecap="round" stroke-linejoin="round" stroke-miterlimit="4" stroke="#f4f4f4" stroke-width="2"><g><path d="M 13.804202 25.134251C 13.804202 20.86165 15.841548 17.271797 19.758026 17.271797C 23.674599 17.271797 25.711899 20.86165 25.711899 25.134251L 25.711899 30.454899C 25.711899 34.727501 23.57905 38.411575 19.758026 38.411575C 15.937067 38.411575 13.804202 34.727501 13.804202 30.454899L 13.804202 25.134251ZM 40.313278 17.248413C 33.688076 17.248413 30.526676 21.536949 30.277901 28.107176L 30.277451 31.269325C 30.277451 35.417351 32.5816 38.083 36.423622 38.411648C 40.04245 38.551975 42.295074 35.710373 42.457302 31.593775C 42.560349 28.979874 41.233597 25.310875 37.160725 24.903551C 33.591549 24.5467 30.801849 26.918724 30.277901 29.48245"></path></g></g></g><g id="g-root-tx_servercr_146qb4e11sghz9-stroke" data-item-order="0" transform="translate(63, 411)"></g><g id="g-root-tx_attackdi_qqwh5a11shudk-stroke" data-item-order="0" transform="translate(231, 411.00006103515625)"></g><g id="g-root-tx_maliciou_9lq6m11shtsb-stroke" data-item-order="0" transform="translate(399, 411.00006103515625)"></g><g id="g-root-tx_security_1qbbxe611sjaj2-stroke" data-item-order="0" transform="translate(567, 411.00006103515625)"></g><g id="g-root-tx_temporar_1hbblji11skmwx-stroke" data-item-order="0" transform="translate(735, 411.00006103515625)"></g><g id="g-root-tx_cloudwat_4mxbym11skop8-stroke" data-item-order="0" transform="translate(903, 411.00006103515625)"></g><g id="g-root-tx_theserve_i099la11sgh72-stroke" data-item-order="0" transform="translate(63, 447.00006103515625)"></g><g id="g-root-tx_theattac_4lxhq11shudl-stroke" data-item-order="0" transform="translate(231, 471.00006103515625)"></g><g id="g-root-tx_theserve_13ym4zy11sj8xw-stroke" data-item-order="0" transform="translate(399, 471.00006103515625)"></g><g id="g-root-tx_analarms_18lxc5q11skpad-stroke" data-item-order="0" transform="translate(903, 471.00006103515625)"></g><g id="g-root-tx_theserve_qp11vy11skmwy-stroke" data-item-order="0" transform="translate(735, 471.00006103515625)"></g><g id="g-root-tx_security_zp1dqm11sjaj3-stroke" data-item-order="0" transform="translate(567, 471.00006103515625)"></g></g></g></svg>